<svg xmlns="http://www.w3.org/2000/svg" xmlns:xlink="http://www.w3.org/1999/xlink" width="500" zoomAndPan="magnify" viewBox="0 0 375 374.999991" height="500" preserveAspectRatio="xMidYMid meet" version="1.0"><defs><g/></defs><rect x="-37.5" width="450" fill="#ffffff" y="-37.499999" height="449.999989" fill-opacity="1"/><rect x="-37.5" width="450" fill="#ffffff" y="-37.499999" height="449.999989" fill-opacity="1"/><rect x="-37.5" width="450" fill="#657179" y="-37.499999" height="449.999989" fill-opacity="1"/><g fill="#ffffff" fill-opacity="1"><g transform="translate(139.005518, 284.086004)"><g><path d="M 8.625 0 L 8.625 -5.3125 L 26.8125 -6.5 L 26.8125 -162.078125 L 8.625 -163.265625 L 8.625 -168.578125 L 75.25 -168.578125 L 75.25 -163.265625 L 57.0625 -162.078125 L 57.0625 -7.671875 C 69.894531 -6.804688 78.675781 -6.375 83.40625 -6.375 C 87.738281 -6.375 91.535156 -6.492188 94.796875 -6.734375 C 98.066406 -6.972656 101.0625 -7.484375 103.78125 -8.265625 C 106.5 -9.054688 108.78125 -9.882812 110.625 -10.75 C 112.476562 -11.613281 114.234375 -12.972656 115.890625 -14.828125 C 117.546875 -16.679688 118.882812 -18.492188 119.90625 -20.265625 C 120.925781 -22.035156 122.265625 -25.5 123.921875 -30.65625 C 125.578125 -35.8125 127.035156 -41.660156 128.296875 -48.203125 L 132.3125 -48.203125 L 132.3125 0 Z M 8.625 0 "/></g></g></g><g fill="#2e2e2e" fill-opacity="1"><g transform="translate(64.538415, 269.737571)"><g><path d="M 7.09375 0 L 7.09375 -4.375 L 22.078125 -5.34375 L 22.078125 -133.421875 L 7.09375 -134.40625 L 7.09375 -138.78125 L 48.71875 -138.78125 L 89.28125 -35.296875 L 89.46875 -35.296875 L 127.59375 -138.78125 L 167.46875 -138.78125 L 167.46875 -134.40625 L 152.484375 -133.421875 L 152.484375 -5.34375 L 167.46875 -4.375 L 167.46875 0 L 112.625 0 L 112.625 -4.375 L 127.59375 -5.34375 L 127.78125 -124.28125 L 127.59375 -124.28125 L 81.40625 1.9375 L 77.796875 1.9375 L 26.453125 -128.859375 L 26.265625 -128.859375 L 27.71875 -5.34375 L 42.40625 -4.375 L 42.40625 0 Z M 7.09375 0 "/></g></g></g><path stroke-linecap="butt" transform="matrix(0.75, 0, 0, 0.75, 37.500002, 298.060058)" fill="none" stroke-linejoin="miter" d="M -0.00000271667 2.498048 L 400.000024 2.498048 " stroke="#ffffff" stroke-width="5" stroke-opacity="1" stroke-miterlimit="4"/><path stroke-linecap="butt" transform="matrix(0.75, 0, 0, 0.75, 37.500002, 97.896154)" fill="none" stroke-linejoin="miter" d="M -0.00000271667 2.497836 L 400.000024 2.497836 " stroke="#2e2e2e" stroke-width="5" stroke-opacity="1" stroke-miterlimit="4"/></svg>